<svg aria-hidden="true" style="width:0;height:0;position:absolute;overflow:hidden" xmlns="http://www.w3.org/2000/svg"><defs><symbol id="icon-search" viewBox="0 0 32 32"><path d="m27.231 31.008-6.447-7.58c-.705-.784-1.029-1.622-.998-2.299a11.954 11.954 0 0 1-7.787 2.87c-6.627 0-12-5.373-12-12s5.373-12 12-12 12 5.373 12 12c0 2.972-1.081 5.691-2.87 7.787.677-.031 1.515.293 2.299.998l7.58 6.447c1.226 1.104 1.33 2.907.23 4.007s-2.903.997-4.007-.23zM20 12a8 8 0 1 0-16 0 8 8 0 0 0 16 0z"/></symbol><symbol id="icon-arrow-up" viewBox="0 0 32 32"><path d="M16 1 1 16h9v16h12V16h9z"/></symbol><symbol id="icon-arrow-up2" viewBox="0 0 32 32"><path d="m27.414 12.586-10-10a2 2 0 0 0-2.828 0l-10 10a2 2 0 1 0 2.828 2.828L14 8.828V28a2 2 0 1 0 4 0V8.828l6.586 6.586c.39.39.902.586 1.414.586s1.024-.195 1.414-.586a2 2 0 0 0 0-2.828z"/></symbol><symbol id="icon-shift" viewBox="0 0 32 32"><path d="M21 28H11a1 1 0 0 1-1-1V16H6a1.002 1.002 0 0 1-.707-1.707l10-10a1 1 0 0 1 1.414 0l10 10A1 1 0 0 1 26 16h-4v11a1 1 0 0 1-1 1zm-9-2h8V15a1 1 0 0 1 1-1h2.586L16 6.414 8.414 14H11a1 1 0 0 1 1 1v11z"/></symbol><symbol id="icon-ctrl" viewBox="0 0 32 32"><path d="M23 14c-.278 0-.555-.116-.753-.341L16 6.519l-6.247 7.14a1 1 0 1 1-1.505-1.317l7-8a1 1 0 0 1 1.506 0l7 8A1 1 0 0 1 23.002 14z"/></symbol></defs></svg>